<svg version="1.2" xmlns="http://www.w3.org/2000/svg" viewBox="0 0 555 298" width="555" height="298">
	<style>
		.s0 { fill: #191919 } 
	</style>
	<g id="Layer 1">
		<path id="-e-SeedBibleLogo" class="s0" d="m331.11 57.54c7.57-3.65 16.62-4.99 26.18-3.88 73.91 8.58 144.62 15.2 197.44 4.67v-54.36c-44.45 12.58-118.68 5.53-191.34-2.9-19.53-2.27-38.64 0.77-55.26 8.78-11.78 5.67-22.08 13.37-30.56 22.57-8.48-9.2-18.77-16.9-30.55-22.57-16.63-8.01-35.73-11.05-55.26-8.78-72.66 8.43-146.9 15.48-191.35 2.9v54.36c52.83 10.53 123.54 3.91 197.45-4.67 9.55-1.11 18.6 0.23 26.17 3.88 16.52 7.96 26.89 24.29 27.07 42.62v10.89q-2.01-1.09-4.08-2.09c-16.63-8.01-35.73-11.04-55.26-8.78-72.66 8.44-146.9 15.49-191.35 2.9v54.36c52.83 10.53 123.54 3.91 197.45-4.67 9.55-1.11 18.6 0.24 26.17 3.88 16.52 7.96 26.89 24.29 27.07 42.63v6.01h-250.69v52.94h250.69v39.77h52.94v-39.77h250.69v-52.94h-250.69v-6.01c0.18-18.34 10.56-34.67 27.07-42.63 7.57-3.64 16.62-4.99 26.18-3.88 73.91 8.58 144.62 15.2 197.44 4.67v-54.36c-44.44 12.59-118.68 5.54-191.34-2.9-19.53-2.26-38.64 0.77-55.26 8.78q-2.07 1-4.09 2.09v-10.89c0.18-18.33 10.56-34.66 27.07-42.62z"/>
	</g>
</svg>