<svg width="6" height="6" viewBox="0 0 6 6" fill="none" xmlns="http://www.w3.org/2000/svg">
<g clip-path="url(#clip0_3731_2561)">
<path d="M5.88252 2.7648C5.80596 2.68815 5.68175 2.68815 5.60519 2.7648L4.37192 3.99831L2.29712 1.92351L3.53063 0.690235C3.63738 0.583494 3.58854 0.401225 3.44272 0.362155C3.37505 0.344023 3.30285 0.363369 3.25331 0.412909L2.02004 1.64642C1.89829 1.76819 1.87027 1.95514 1.95095 2.10725L1.43206 2.62638C1.27911 2.77943 1.27911 3.02748 1.43206 3.18054L1.54696 3.29544L0.117457 4.7247C0.0143367 4.82775 0.055807 5.0033 0.19414 5.04931L1.95805 5.63728C1.97803 5.64399 1.99897 5.64738 2.02004 5.64732C2.07203 5.64737 2.12191 5.62674 2.1587 5.59L2.99999 4.74846L3.11489 4.86336C3.26794 5.01632 3.51599 5.01632 3.66905 4.86336L4.18818 4.34448C4.34029 4.42516 4.52724 4.39713 4.649 4.27539L5.88252 3.04212C5.95916 2.96557 5.95916 2.84135 5.88252 2.7648ZM1.96712 5.22717L0.619683 4.77762L1.82404 3.57252L2.72291 4.47138L1.96712 5.22717ZM3.39197 4.58628L1.70914 2.90346L2.21602 2.39658L3.89885 4.0794L3.39197 4.58628Z" fill="white"/>
</g>
<defs>
<clipPath id="clip0_3731_2561">
<rect width="6" height="6" fill="white"/>
</clipPath>
</defs>
</svg>
